<svg id="Calque_1" data-name="Calque 1" xmlns="http://www.w3.org/2000/svg" viewBox="120 400 1200 615">
  <defs>
    <style>.cls-1{fill:#03a5a7;}.cls-2{fill:#485659;}</style>
  </defs>
  <title>Logo_final_Vialink</title>
  <path class="cls-1" d="M598.9,652.66h31.36V772.8H598.9Z"/>
  <path class="cls-1"
        d="M755.55,772.8l-8.23-21.25H695.39L687,772.8H654.77l51.59-120.14h32.22L789,772.8Zm-50.73-45.25h33.25l-16.46-42.85Z"/>
  <path class="cls-1" d="M813.48,652.66h31.36v93.41h50.9V772.8H813.48Z"/>
  <path class="cls-1" d="M923.68,652.66H955V772.8H923.68Z"/>
  <path class="cls-1" d="M1074.16,652.66h29.13V772.8h-27.42L1021.37,701V772.8H992.06V652.66h27.59L1074.33,725Z"/>
  <path class="cls-1"
        d="M1256,772.8h-37.53l-31.54-46.62L1171.85,743V772.8h-31.36V652.66h31.36v52.1l45.08-52.1h36.33l-44.56,49.53Z"/>
  <path class="cls-2"
        d="M427.52,482.62A223.23,223.23,0,0,0,251.94,568a11.64,11.64,0,0,1-9.12,4.5h0a11.51,11.51,0,0,1-9.1-18.57,246.26,246.26,0,0,1,387.62,0,11.51,11.51,0,0,1-9.1,18.57h0a11.64,11.64,0,0,1-9.12-4.5A223.23,223.23,0,0,0,427.52,482.62Z"/>
  <path class="cls-2"
        d="M427.52,929.62a223.23,223.23,0,0,0,175.59-85.36,11.64,11.64,0,0,1,9.12-4.5h0a11.51,11.51,0,0,1,9.1,18.57,246.26,246.26,0,0,1-387.62,0,11.51,11.51,0,0,1,9.1-18.57h0a11.64,11.64,0,0,1,9.12,4.5A223.23,223.23,0,0,0,427.52,929.62Z"/>
  <path class="cls-2"
        d="M214.47,595.52h0a11.48,11.48,0,0,1,10.44,16.31,223.21,223.21,0,0,0-1,186.37,11.49,11.49,0,0,1-10.49,16.21h0a11.57,11.57,0,0,1-10.53-6.82A246,246,0,0,1,204,602.23,11.57,11.57,0,0,1,214.47,595.52Z"/>
  <polygon class="cls-1" points="401.9 746.05 371.69 686.4 302.79 686.4 357.27 793.98 377.63 793.98 401.9 746.05"/>
  <polygon class="cls-1"
           points="480.61 613.4 413.43 746.05 389.16 793.98 437.7 793.98 458.06 793.98 549.52 613.4 480.61 613.4"/>
</svg>
