<svg id="Calque_1" data-name="Calque 1" xmlns="http://www.w3.org/2000/svg" viewBox="0 0 1402 1397">
  <defs>
    <style>.cls-1 {fill: #03a5a7;}</style>
  </defs>
  <title>Logo_final_Vialink</title>
  <path class="cls-1" d="M706.91,231.16c-148.71,0-281.41,69.84-367,178.44a24.33,24.33,0,0,1-19.07,9.4h0c-20,0-31.39-23.1-19-38.82C396.23,260.19,542.72,183,706.91,183S1017.59,260.19,1112,380.19c12.37,15.72,1,38.82-19,38.82h0a24.33,24.33,0,0,1-19.07-9.4C988.32,301,855.62,231.16,706.91,231.16Z"/>
  <path class="cls-1" d="M706.91,1165.54c148.71,0,281.41-69.84,367-178.44a24.33,24.33,0,0,1,19.07-9.4h0c20,0,31.39,23.1,19,38.82-94.44,120-240.93,197.19-405.12,197.19s-310.68-77.19-405.12-197.19c-12.37-15.72-1-38.82,19-38.82h0a24.33,24.33,0,0,1,19.07,9.4C425.5,1095.7,558.2,1165.54,706.91,1165.54Z"/>
  <path class="cls-1" d="M261.56,467.17h0a24,24,0,0,1,21.83,34.09,466.58,466.58,0,0,0-2.12,389.58,24,24,0,0,1-21.94,33.89h0a24.19,24.19,0,0,1-22-14.25,514.23,514.23,0,0,1,2.33-429.28A24.2,24.2,0,0,1,261.56,467.17Z"/>
  <path class="cls-1" d="M1141.16,467.17h0a24,24,0,0,0-21.83,34.09,466.58,466.58,0,0,1,2.12,389.58,24,24,0,0,0,21.94,33.89h0a24.19,24.19,0,0,0,22-14.25,514.23,514.23,0,0,0-2.33-429.28A24.2,24.2,0,0,0,1141.16,467.17Z"/>
  <polygon class="cls-1" points="653.36 781.82 590.21 657.13 446.17 657.13 560.06 882 602.62 882 653.36 781.82"/>
  <polygon class="cls-1" points="817.88 504.54 677.45 781.82 626.71 882 728.19 882 770.75 882 961.92 504.54 817.88 504.54"/>
</svg>
